# xmcd
#
# Track frame offsets: 
#        150
#        18149
#        33099
#        49729
#        66686
#        85181
#        100800
#        113602
#        129288
#        147101
#        163671
#        181413
#        188426
#
# Disc length: 2685 seconds
#
# Revision: 0
# Processed by: cddbd v1.5.1PL0 Copyright (c) Steve Scherf et al.
# Submitted via: ExactAudioCopy v0.95a5
#
DISCID=9f0a7b0d
DTITLE=Peter Stein - Inspirationen
DYEAR=1900
DGENRE=Blues
TTITLE0=Montana
TTITLE1=No volvere
TTITLE2=Un amor
TTITLE3=Faena
TTITLE4=Tears in heaven
TTITLE5=Instirationen
TTITLE6=Quando sali de cuba
TTITLE7=La golondrina
TTITLE8=Duende
TTITLE9=Bambolero
TTITLE10=Flamenco
TTITLE11=Solo 1
TTITLE12=San Francisco bay
EXTD=
EXTT0=
EXTT1=
EXTT2=
EXTT3=
EXTT4=
EXTT5=
EXTT6=
EXTT7=
EXTT8=
EXTT9=
EXTT10=
EXTT11=
EXTT12=
PLAYORDER=
